<svg width="320.4962890625px" height="122.021240234375px" xmlns="http://www.w3.org/2000/svg" viewBox="89.75185546875 13.9893798828125 320.4962890625 122.021240234375" style="background: rgba(0, 0, 0, 0); --darkreader-inline-bgimage: initial; --darkreader-inline-bgcolor:rgba(0, 0, 0, 0);" data-darkreader-inline-bgimage="" data-darkreader-inline-bgcolor="" preserveAspectRatio="xMidYMid"><defs><filter id="editing-extrusion" x="-100%" y="-100%" width="300%" height="300%"><feFlood result="color1" flood-color="#444"></feFlood><feConvolveMatrix order="8,8" divisor="1" kernelMatrix="1 0 0 0 0 0 0 0 0 1 0 0 0 0 0 0 0 0 1 0 0 0 0 0 0 0 0 1 0 0 0 0 0 0 0 0 1 0 0 0 0 0 0 0 0 1 0 0 0 0 0 0 0 0 1 0 0 0 0 0 0 0 0 1" in="SourceAlpha" result="extrude"></feConvolveMatrix><feComposite in="color1" in2="extrude" result="comp-extrude" operator="in"></feComposite><feOffset dx="4" dy="4" in="comp-extrude" result="offset-extrude"></feOffset><feMerge><feMergeNode in="offset-extrude"></feMergeNode><feMergeNode in="SourceGraphic"></feMergeNode></feMerge></filter></defs><g filter="url(#editing-extrusion)"><g transform="translate(139.54155945777893, 98.67218780517578)"><path d="M28.42-9.86L28.42-9.86L28.42-9.86Q29.63-8.32 29.63-5.82L29.63-5.82L29.63-5.82Q29.63-2.37 27.07-0.54L27.07-0.54L27.07-0.54Q24.51 1.28 20.48 1.28L20.48 1.28L20.48 1.28Q18.18 1.28 14.66 0.77L14.66 0.77L14.66 0.77Q7.74-0.32 5.63-0.32L5.63-0.32L5.63-0.32Q3.52-0.32 2.69-0.22L2.69-0.22L2.69-0.22Q1.86-0.13 0.51 0L0.51 0L8.38-42.24L35.97-42.24L35.97-42.24Q35.97-38.34 34.08-36.29L34.08-36.29L34.08-36.29Q32.19-34.24 28.48-34.24L28.48-34.24L28.48-34.24Q24.77-34.24 20.99-35.97L20.99-35.97L19.01-24.77L30.40-24.77L30.40-24.77Q30.40-21.38 28.74-19.49L28.74-19.49L28.74-19.49Q27.07-17.60 24.29-17.60L24.29-17.60L24.29-17.60Q21.50-17.60 19.78-18.24L19.78-18.24L19.78-18.24Q18.05-18.88 17.86-19.07L17.86-19.07L15.55-6.98L15.55-6.98Q17.09-6.78 19.97-6.78L19.97-6.78L19.97-6.78Q24.90-6.78 28.42-9.86ZM50.82-3.52L50.82-3.52L50.82-3.52Q48.83 1.28 42.50 1.28L42.50 1.28L42.50 1.28Q39.30 1.28 37.25-0.96L37.25-0.96L37.25-0.96Q35.58-2.82 35.58-4.93L35.58-4.93L35.58-4.93Q35.58-9.73 37.82-20.22L37.82-20.22L42.50-44.80L55.49-46.08L49.28-13.70L49.28-13.70Q48.19-8.96 48.19-7.30L48.19-7.30L48.19-7.30Q48.19-3.65 50.82-3.52ZM55.42-3.07L55.42-3.07L63.36-44.80L76.35-46.08L74.37-36.29L74.37-36.29Q73.66-33.28 72.77-31.17L72.77-31.17L72.77-31.17Q74.18-32.96 77.25-33.66L77.25-33.66L77.25-33.66Q78.14-33.92 79.23-33.92L79.23-33.92L79.23-33.92Q85.18-33.92 88.45-30.30L88.45-30.30L88.45-30.30Q91.71-26.69 91.71-19.71L91.71-19.71L91.71-19.71Q91.71-10.62 86.53-4.93L86.53-4.93L86.53-4.93Q80.96 1.28 70.85 1.28L70.85 1.28L70.85 1.28Q63.87 1.28 58.62-1.02L58.62-1.02L58.62-1.02Q56.77-1.86 55.42-3.07ZM71.68-22.40L68.29-3.65L68.29-3.65Q69.63-2.50 71.30-2.50L71.30-2.50L71.30-2.50Q72.96-2.50 73.92-3.14L73.92-3.14L73.92-3.14Q74.88-3.78 75.58-5.06L75.58-5.06L75.58-5.06Q77.50-8.51 79.04-19.07L79.04-19.07L79.04-19.07Q79.49-22.08 79.49-25.09L79.49-25.09L79.49-25.09Q79.49-28.10 78.82-29.06L78.82-29.06L78.82-29.06Q78.14-30.02 76.86-30.02L76.86-30.02L76.86-30.02Q72.96-30.02 71.68-22.40L71.68-22.40ZM98.34-1.92L98.34-1.92L98.34-1.92Q96.83-3.58 96.16-6.21L96.16-6.21L96.16-6.21Q95.49-8.83 95.49-13.12L95.49-13.12L95.49-13.12Q95.49-17.41 96.96-21.31L96.96-21.31L96.96-21.31Q98.43-25.22 101.12-28.03L101.12-28.03L101.12-28.03Q106.62-33.92 115.71-33.92L115.71-33.92L115.71-33.92Q118.98-33.92 121.34-32.83L121.34-32.83L132.29-33.92L127.55-8.96L127.55-8.96Q127.36-8.19 127.36-6.78L127.36-6.78L127.36-6.78Q127.36-5.38 128.22-4.48L128.22-4.48L128.22-4.48Q129.09-3.58 130.37-3.46L130.37-3.46L130.37-3.46Q129.73-1.28 127.39 0L127.39 0L127.39 0Q125.06 1.28 122.43 1.28L122.43 1.28L122.43 1.28Q119.81 1.28 118.05 0.29L118.05 0.29L118.05 0.29Q116.29-0.70 115.78-2.37L115.78-2.37L115.78-2.37Q114.75-0.77 112.58 0.26L112.58 0.26L112.58 0.26Q110.40 1.28 107.49 1.28L107.49 1.28L107.49 1.28Q104.58 1.28 102.21 0.51L102.21 0.51L102.21 0.51Q99.84-0.26 98.34-1.92ZM111.84-27.90L111.84-27.90L111.84-27.90Q111.10-26.75 110.46-24.80L110.46-24.80L110.46-24.80Q109.82-22.85 108.77-17.63L108.77-17.63L108.77-17.63Q107.71-12.42 107.71-8.70L107.71-8.70L107.71-8.70Q107.71-4.99 108.29-3.90L108.29-3.90L108.29-3.90Q108.86-2.82 109.89-2.82L109.89-2.82L109.89-2.82Q111.94-2.82 113.44-4.77L113.44-4.77L113.44-4.77Q114.94-6.72 115.52-10.18L115.52-10.18L118.91-28.93L118.91-28.93Q117.57-30.08 116-30.08L116-30.08L116-30.08Q114.43-30.08 113.50-29.57L113.50-29.57L113.50-29.57Q112.58-29.06 111.84-27.90ZM154.88-22.46L154.88-22.46L154.88-22.46Q155.78-24.83 155.78-26.88L155.78-26.88L155.78-26.88Q155.78-30.66 152.70-30.66L152.70-30.66L152.70-30.66Q151.10-30.66 149.79-29.22L149.79-29.22L149.79-29.22Q148.48-27.78 148.48-25.98L148.48-25.98L148.48-25.98Q148.48-24.70 149.50-23.68L149.50-23.68L149.50-23.68Q150.98-22.27 154.75-19.97L154.75-19.97L154.75-19.97Q158.53-17.66 159.97-15.78L159.97-15.78L159.97-15.78Q161.41-13.89 161.41-11.30L161.41-11.30L161.41-11.30Q161.41-8.70 160.16-6.34L160.16-6.34L160.16-6.34Q158.91-3.97 156.67-2.30L156.67-2.30L156.67-2.30Q151.87 1.28 144.19 1.28L144.19 1.28L144.19 1.28Q140.03 1.28 136.83-0.90L136.83-0.90L136.83-0.90Q133.63-3.01 133.63-5.50L133.63-5.50L133.63-5.50Q133.63-8 135.46-9.47L135.46-9.47L135.46-9.47Q137.28-10.94 139.97-10.94L139.97-10.94L139.97-10.94Q142.66-10.94 144.32-9.92L144.32-9.92L144.32-9.92Q143.49-7.81 143.49-6.40L143.49-6.40L143.49-6.40Q143.49-2.18 147.07-2.18L147.07-2.18L147.07-2.18Q148.61-2.18 149.63-3.14L149.63-3.14L149.63-3.14Q150.66-4.10 150.66-5.76L150.66-5.76L150.66-5.76Q150.66-9.02 145.15-12.48L145.15-12.48L145.15-12.48Q140.67-15.42 139.65-16.58L139.65-16.58L139.65-16.58Q137.92-18.62 137.92-21.18L137.92-21.18L137.92-21.18Q137.92-23.74 139.14-26.18L139.14-26.18L139.14-26.18Q140.35-28.61 142.59-30.34L142.59-30.34L142.59-30.34Q147.26-33.92 155.39-33.92L155.39-33.92L155.39-33.92Q159.55-33.92 162.02-32.26L162.02-32.26L162.02-32.26Q164.48-30.59 164.48-27.78L164.48-27.78L164.48-27.78Q164.48-24.96 162.78-23.36L162.78-23.36L162.78-23.36Q161.09-21.76 158.02-21.76L158.02-21.76L158.02-21.76Q155.90-21.76 154.88-22.46ZM192.77-10.82L192.77-10.82L192.77-10.82Q194.37-9.73 194.37-7.33L194.37-7.33L194.37-7.33Q194.37-4.93 193.15-3.39L193.15-3.39L193.15-3.39Q191.94-1.86 189.95-0.83L189.95-0.83L189.95-0.83Q185.86 1.28 181.44 1.28L181.44 1.28L181.44 1.28Q177.02 1.28 174.43 0.32L174.43 0.32L174.43 0.32Q171.84-0.64 170.11-2.43L170.11-2.43L170.11-2.43Q166.72-5.82 166.72-12.03L166.72-12.03L166.72-12.03Q166.72-21.70 171.97-27.58L171.97-27.58L171.97-27.58Q177.60-33.92 187.39-33.92L187.39-33.92L187.39-33.92Q193.47-33.92 196.48-31.36L196.48-31.36L196.48-31.36Q198.72-29.44 198.72-26.30L198.72-26.30L198.72-26.30Q198.72-15.04 179.26-15.04L179.26-15.04L179.26-15.04Q179.01-13.38 179.01-11.97L179.01-11.97L179.01-11.97Q179.01-9.02 180.32-7.90L180.32-7.90L180.32-7.90Q181.63-6.78 184.06-6.78L184.06-6.78L184.06-6.78Q186.50-6.78 189.09-7.90L189.09-7.90L189.09-7.90Q191.68-9.02 192.77-10.82ZM179.71-17.79L179.71-17.79L179.71-17.79Q184.26-17.79 186.88-20.61L186.88-20.61L186.88-20.61Q189.50-23.30 189.50-27.58L189.50-27.58L189.50-27.58Q189.50-29.06 188.96-29.86L188.96-29.86L188.96-29.86Q188.42-30.66 187.33-30.66L187.33-30.66L187.33-30.66Q186.24-30.66 185.31-30.24L185.31-30.24L185.31-30.24Q184.38-29.82 183.42-28.42L183.42-28.42L183.42-28.42Q181.06-25.22 179.71-17.79ZM216.19-3.52L216.19-3.52L216.19-3.52Q214.21 1.28 207.87 1.28L207.87 1.28L207.87 1.28Q204.67 1.28 202.62-0.96L202.62-0.96L202.62-0.96Q200.96-2.82 200.96-4.93L200.96-4.93L200.96-4.93Q200.96-9.73 203.20-20.22L203.20-20.22L207.87-44.80L220.86-46.08L214.66-13.70L214.66-13.70Q213.57-8.96 213.57-7.30L213.57-7.30L213.57-7.30Q213.57-3.65 216.19-3.52Z" fill="#ccc" data-darkreader-inline-fill="" style="--darkreader-inline-fill:#35393b;"></path></g></g><style>text {
  font-size: 64px;
  font-family: Arial Black;
  dominant-baseline: central;
  text-anchor: middle;
}</style><style class="darkreader darkreader--sync" media="screen"></style></svg>